<?xml version="1.0" encoding="utf-8"?>
<!-- Generator: Adobe Illustrator 18.1.1, SVG Export Plug-In . SVG Version: 6.00 Build 0)  -->
<svg version="1.1" id="Layer_1" xmlns="http://www.w3.org/2000/svg" xmlns:xlink="http://www.w3.org/1999/xlink" x="0px" y="0px"
	 viewBox="0 0 3000 3000" enable-background="new 0 0 3000 3000" xml:space="preserve">
<polygon id="stengel_1_" fill="#774D15" points="1517,1559.7 1486.8,2130 1519.3,2090.2 1549.2,1559.2 "/>
<polygon fill="#845640" points="1549.2,1559.2 1350.3,1132.3 1342.2,1158.1 1517,1559.7 "/>
<polygon fill="#CC6A48" points="456.8,863.6 1081.3,979.6 981.4,721.5 "/>
<polygon fill="#AF6551" points="1186.1,777.5 1081.3,979.6 981.5,721 "/>
<polygon fill="#CC6A48" points="1298.1,920.8 1186,777.9 1081.3,979.6 "/>
<polygon fill="#966551" points="1350.3,1132.3 1298.1,920.8 1081.3,979.6 "/>
<polygon fill="#E2836D" points="1393.9,970.4 1309.2,965.5 1350.3,1132.3 "/>
<polygon fill="#CC6A48" points="1342.2,1158.1 1291.5,1097.7 1350.3,1132.3 "/>
<polygon fill="#CC6A48" points="2543.2,1429.2 2169.7,1147.6 2411.4,1209.3 "/>
<polygon fill="#966551" points="2101.9,943 2411.4,1209.3 2169.7,1147.6 "/>
<polygon fill="#B2644F" points="1921.7,835.8 2172,1145.8 2104.2,941.2 "/>
<polygon fill="#CC6A48" points="1950,1111.2 1921.7,835.8 2172,1145.8 "/>
<polygon fill="#AF6551" points="1721.1,1211.1 1762.4,1133.6 1921.7,835.8 1950,1111.2 "/>
<polygon fill="#E2836D" points="1817.9,893.1 1921.7,835.8 1721.1,1211.1 "/>
<polygon fill="#845640" points="1549.2,1559.2 1721.1,1211.1 1664.8,1237.7 1517,1559.7 "/>
<polygon fill="#CC6A48" points="1758.2,1089.3 1664.8,1237.7 1721.1,1211.1 "/>
<path fill="none" d="M1572.4,1375.5"/>
<polygon fill="#3C301F" points="1607.6,1847.4 1562.9,1776.4 1499.3,1858.4 "/>
<polygon fill="#2B2107" points="1523.2,1785.6 1499.3,1858.4 1562.9,1776.4 "/>
<polygon fill="#48422E" points="1396,1810.7 1523.2,1785.6 1499.3,1858.4 "/>
<polygon fill="#212418" points="1296.5,1844.6 1340.2,1804.4 1396,1810.7 "/>
<polygon fill="#1C210F" points="1523.2,1785.6 1450.6,1787.2 1396,1810.7 "/>
<polygon fill="#271F05" points="1499.3,1858.4 1394.7,1848.2 1396,1810.7 "/>
<polygon fill="#736A49" points="1295.4,1844.6 1394.7,1848.2 1396,1810.7 "/>
<polygon fill="#030403" points="1578.3,1776.2 1607.6,1848.5 1562.9,1776.4 "/>
<polygon fill="#030403" points="1607.1,1848.5 1593.6,1775.9 1578.3,1776.2 "/>
<polygon fill="#423F25" points="1632,1786.2 1607.1,1847.4 1593.6,1775.9 "/>
<polygon fill="#010000" points="1499.3,1858.4 1443.5,1896.5 1395.8,1848.2 "/>
<polygon fill="#443924" points="1296.5,1844.6 1443.5,1896.5 1395.8,1848.2 "/>
<polygon fill="#1C1B00" points="1296.5,1844.6 1225.3,1890.4 1443.5,1896.5 "/>
<polygon fill="#302714" points="1499.3,1858.4 1578.3,1905.4 1443.5,1896.5 "/>
<polygon fill="#302A0E" points="1607.1,1847.4 1578.3,1905.4 1499.3,1858.4 "/>
<polygon fill="#0A0A00" points="1632,1786.2 1698.6,1850 1607.1,1847.4 "/>
<polygon fill="#1F2014" points="1578.3,1905.4 1698.6,1850 1607.1,1847.4 "/>
<polygon fill="#302B1B" points="1700.9,1881.9 1578.3,1905.4 1698.6,1850 "/>
<polygon fill="#2E291A" points="1768.7,1868.9 1700.9,1881.9 1698.6,1850 "/>
<polygon fill="#44341F" points="1839.8,1847.4 1698.6,1850 1873.8,1895.2 "/>
<polygon fill="#0F190D" points="1632,1786.2 1839.8,1847.4 1698.6,1850 "/>
<polygon fill="#44341F" points="1443.5,1896.5 1505.5,1935.4 1578.3,1905.4 "/>
<polygon fill="#44341F" points="1578.3,1905.4 1505.5,1970.6 1508.3,2007.2 "/>
<polygon fill="#2B2107" points="1505,1934.8 1505,1972 1578.1,1905.4 "/>
<polygon fill="#8D8C91" points="1508.3,1954.1 1578.3,1891.4 1718.8,1987.9 "/>
<polygon fill="#818085" points="1519.3,2090.2 1718.8,1987.9 1508.3,1954.1 "/>
<polygon fill="#A9A4AA" points="1741.5,2190.1 1519.3,2090.2 1718.8,1987.9 "/>
<polygon fill="#938C93" points="1519.3,2195.7 1519.3,2090.2 1741.5,2190.1 "/>
<polygon fill="#9E979E" points="1589.6,2258.5 1519.3,2195.7 1741.5,2190.1 "/>
<polygon fill="#83868B" points="1578.3,1891.4 1768.7,1868.9 1718.8,1987.9 "/>
<polygon fill="#868990" points="1986.2,1888.4 1768.7,1868.9 1718.8,1987.9 "/>
<polygon fill="#777A81" points="1931.8,2089 1741.5,2190.1 1718.8,1987.9 "/>
<polygon fill="#9B9AA2" points="1986.2,1888.4 1931.8,2089 1718.8,1987.9 "/>
<polygon fill="#9294A0" points="2181.2,1888.4 1986.2,1888.4 2181.2,2155.2 "/>
<polygon fill="#9B9BA7" points="1931.8,2089 2181.2,2155.2 1986.2,1888.4 "/>
<polygon fill="#9D9AA5" points="1741.5,2190.1 2013.4,2265.5 1589.6,2258.5 "/>
<polygon fill="#9D9CA4" points="1931.8,2089 2013.4,2265.5 1741.5,2190.1 "/>
<polygon fill="#A5A4AC" points="2181.2,2155.2 2013.4,2265.5 1931.8,2089 "/>
<polygon fill="#A39BA8" points="2380.6,2278.1 2181.2,2155.2 2013.4,2265.5 "/>
<polygon fill="#92909B" points="2457.7,2247.4 2380.6,2278.1 2181.2,2155.2 "/>
<polygon fill="#918E97" points="2457.7,2058.8 2181.2,2155.2 2457.7,2247.4 "/>
<polygon fill="#989AA7" points="2457.7,1915 2181.2,2028.8 2457.7,2058.8 "/>
<polygon fill="#8E8C99" points="2181.2,2155.2 2181.2,2028.8 2457.7,2058.8 "/>
<polygon fill="#898C95" points="2457.7,1915 2396.5,1875.9 2181.2,2028.8 "/>
<polygon fill="#9C9BA3" points="2181.2,1888.4 2396.5,1875.9 2181.2,2028.8 "/>
<polygon fill="#8A838A" points="553.9,1946.9 613.7,1882.6 756.2,1981.6 "/>
<polygon fill="#8D8C92" points="553.9,2086.5 756.2,1981.6 553.9,1946.9 "/>
<polygon fill="#908991" points="779.2,2189 553.9,2086.5 756.2,1981.6 "/>
<polygon fill="#919096" points="553.9,2194.7 553.9,2086.5 779.2,2189 "/>
<polygon fill="#BCB1B7" points="586.1,2259.2 553.9,2194.7 779.2,2189 "/>
<polygon fill="#95939E" points="613.7,1882.6 806.8,1859.5 756.2,1981.6 "/>
<polygon fill="#6F6E74" points="1009.1,1875.3 806.8,1859.5 756.2,1981.6 "/>
<polygon fill="#867C84" points="972.3,2085.3 779.2,2189 756.2,1981.6 "/>
<polygon fill="#8B8994" points="1009.1,1875.3 972.3,2085.3 756.2,1981.6 "/>
<polygon fill="#93929A" points="1225.3,1878.8 1009.1,1875.3 1225.1,2153.2 "/>
<polygon fill="#A2A1A9" points="972.3,2085.3 1225.1,2153.2 1009.1,1875.3 "/>
<polygon fill="#97928F" points="779.2,2189 1055,2266.3 586.1,2259.2 "/>
<polygon fill="#898792" points="972.3,2085.3 1055,2266.3 779.2,2189 "/>
<polygon fill="#BFB4BC" points="1225.1,2153.2 1055,2266.3 972.3,2085.3 "/>
<polygon fill="#A79DA6" points="1427.4,2279.2 1225.1,2153.2 1055,2266.3 "/>
<polygon fill="#9B9BA3" points="1519.3,2247.7 1427.4,2279.2 1225.1,2153.2 "/>
<polygon fill="#69686E" points="1519.3,2054.3 1225.1,2153.2 1519.3,2247.7 "/>
<polygon fill="#868992" points="1505.5,1906.8 1225.1,2023.5 1519.3,2054.3 "/>
<polygon fill="#9A98A3" points="1225.1,2153.2 1225.1,2023.5 1519.3,2054.3 "/>
<polygon fill="#93929A" points="1505.5,1906.8 1443.5,1882.6 1225.1,2023.5 "/>
<polygon fill="#B4ABB0" points="1225.3,1878.8 1443.5,1882.6 1225.1,2023.5 "/>
</svg>
