<?xml version="1.0" encoding="utf-8"?>
<!-- Generator: Adobe Illustrator 18.1.1, SVG Export Plug-In . SVG Version: 6.00 Build 0)  -->
<svg version="1.1" id="Layer_1" xmlns="http://www.w3.org/2000/svg" xmlns:xlink="http://www.w3.org/1999/xlink" x="0px" y="0px"
	 viewBox="0 0 400 65" enable-background="new 0 0 400 65" xml:space="preserve">
<polygon id="stengel_1_" fill="#A5CF58" points="44,34.8 42.9,55.5 44.1,54 45.1,34.8 "/>
<g id="left_1_">
	<polygon fill="#B0D470" points="45.1,34.8 37.9,19.3 37.6,20.2 44,34.8 	"/>
	<polygon fill="#78B443" points="5.5,9.5 28.2,13.8 24.6,4.4 	"/>
	<polygon fill="#55A245" points="32,6.4 28.2,13.8 24.6,4.4 	"/>
	<polygon fill="#6DB344" points="36,11.6 32,6.4 28.2,13.8 	"/>
	<polygon fill="#7DBB42" points="37.9,19.3 36,11.6 28.2,13.8 	"/>
	<polygon fill="#6BA442" points="39.5,13.4 36.4,13.2 37.9,19.3 	"/>
	<polygon fill="#78B443" points="37.6,20.2 35.8,18 37.9,19.3 	"/>
</g>
<g id="right_1_">
	<polygon fill="#A2CF6A" points="81.2,30.1 67.6,19.8 76.4,22.1 	"/>
	<polygon fill="#97CB5A" points="65.2,12.4 76.4,22.1 67.6,19.8 	"/>
	<polygon fill="#9AC95A" points="58.7,8.5 67.7,19.8 65.3,12.4 	"/>
	<polygon fill="#97CA4E" points="59.7,18.5 58.7,8.5 67.7,19.8 	"/>
	<polygon fill="#82C041" points="51.4,22.1 52.9,19.3 58.7,8.5 59.7,18.5 	"/>
	<polygon fill="#B9D985" points="54.9,10.6 58.7,8.5 51.4,22.1 	"/>
	<polygon fill="#B0D470" points="45.1,34.8 51.4,22.1 49.3,23.1 44,34.8 	"/>
	<polygon fill="#89C440" points="52.7,17.7 49.3,23.1 51.4,22.1 	"/>
	<path fill="none" d="M46,28.1"/>
</g>
<polygon fill="#3D3120" points="47.3,45.2 45.6,42.6 43.3,45.6 "/>
<polygon fill="#2B2312" points="44.2,43 43.3,45.6 45.6,42.6 "/>
<polygon fill="#49432F" points="39.6,43.9 44.2,43 43.3,45.6 "/>
<polygon fill="#222418" points="36,45.1 37.6,43.7 39.6,43.9 "/>
<polygon fill="#1E2315" points="44.2,43 41.6,43 39.6,43.9 "/>
<polygon fill="#282211" points="43.3,45.6 39.5,45.2 39.6,43.9 "/>
<polygon fill="#746A4A" points="36,45.1 39.5,45.2 39.6,43.9 "/>
<polygon fill="#060606" points="46.2,42.6 47.3,45.3 45.6,42.6 "/>
<polygon fill="#060606" points="47.2,45.3 46.8,42.6 46.2,42.6 "/>
<polygon fill="#434026" points="48.2,43 47.2,45.2 46.8,42.6 "/>
<polygon fill="#020202" points="43.3,45.6 41.3,47 39.6,45.2 "/>
<polygon fill="#453A25" points="36,45.1 41.3,47 39.6,45.2 "/>
<polygon fill="#212011" points="36,45.1 33.4,46.8 41.3,47 "/>
<polygon fill="#302817" points="43.3,45.6 46.2,47.3 41.3,47 "/>
<polygon fill="#312B14" points="47.2,45.2 46.2,47.3 43.3,45.6 "/>
<polygon fill="#12120C" points="48.2,43 50.6,45.3 47.2,45.2 "/>
<polygon fill="#202116" points="46.2,47.3 50.6,45.3 47.2,45.2 "/>
<polygon fill="#312C1C" points="50.6,46.5 46.2,47.3 50.6,45.3 "/>
<polygon fill="#2F2A1B" points="53.1,46 50.6,46.5 50.6,45.3 "/>
<polygon fill="#453520" points="55.7,45.2 50.6,45.3 56.9,46.9 "/>
<polygon fill="#131C12" points="48.2,43 55.7,45.2 50.6,45.3 "/>
<polygon fill="#453520" points="41.3,47 43.6,48.4 46.2,47.3 "/>
<polygon fill="#453520" points="46.2,47.3 43.6,49.7 43.7,51 "/>
<polygon fill="#2B2312" points="43,48.4 43,49.7 45.6,47.3 "/>
<polygon fill="#8D8C91" points="43.7,49.1 46.2,46.8 51.3,50.3 "/>
<polygon fill="#828185" points="44.1,54 51.3,50.3 43.7,49.1 "/>
<polygon fill="#A9A4AA" points="52.1,57.6 44.1,54 51.3,50.3 "/>
<polygon fill="#938C93" points="44.1,57.8 44.1,54 52.1,57.6 "/>
<polygon fill="#9E979E" points="46.6,60.1 44.1,57.8 52.1,57.6 "/>
<polygon fill="#84868B" points="46.2,46.8 53.1,46 51.3,50.3 "/>
<polygon fill="#868990" points="61,46.7 53.1,46 51.3,50.3 "/>
<polygon fill="#787B82" points="59,54 52.1,57.6 51.3,50.3 "/>
<polygon fill="#9B9AA2" points="61,46.7 59,54 51.3,50.3 "/>
<polygon fill="#9294A0" points="68.1,46.7 61,46.7 68.1,56.4 "/>
<polygon fill="#9B9CA8" points="59,54 68.1,56.4 61,46.7 "/>
<polygon fill="#9C9AA5" points="52.1,57.6 62,60.4 46.6,60.1 "/>
<polygon fill="#9D9CA4" points="59,54 62,60.4 52.1,57.6 "/>
<polygon fill="#A5A4AC" points="68.1,56.4 62,60.4 59,54 "/>
<polygon fill="#A39BA8" points="75.3,60.8 68.1,56.4 62,60.4 "/>
<polygon fill="#92909C" points="78.1,59.7 75.3,60.8 68.1,56.4 "/>
<polygon fill="#928F98" points="78.1,52.9 68.1,56.4 78.1,59.7 "/>
<polygon fill="#989AA7" points="78.1,47.7 68.1,51.8 78.1,52.9 "/>
<polygon fill="#8E8C99" points="68.1,56.4 68.1,51.8 78.1,52.9 "/>
<polygon fill="#898C95" points="78.1,47.7 75.9,46.2 68.1,51.8 "/>
<polygon fill="#9C9BA3" points="68.1,46.7 75.9,46.2 68.1,51.8 "/>
<polygon fill="#8B838A" points="9.1,48.8 11.2,46.5 16.4,50.1 "/>
<polygon fill="#8E8D93" points="9.1,53.9 16.4,50.1 9.1,48.8 "/>
<polygon fill="#908991" points="17.2,57.6 9.1,53.9 16.4,50.1 "/>
<polygon fill="#919197" points="9.1,57.8 9.1,53.9 17.2,57.6 "/>
<polygon fill="#BCB1B7" points="10.2,60.1 9.1,57.8 17.2,57.6 "/>
<polygon fill="#96939F" points="11.2,46.5 18.2,45.7 16.4,50.1 "/>
<polygon fill="#706F75" points="25.6,46.2 18.2,45.7 16.4,50.1 "/>
<polygon fill="#877D85" points="24.2,53.8 17.2,57.6 16.4,50.1 "/>
<polygon fill="#8B8A95" points="25.6,46.2 24.2,53.8 16.4,50.1 "/>
<polygon fill="#93939A" points="33.4,46.4 25.6,46.2 33.4,56.3 "/>
<polygon fill="#A2A1A9" points="24.2,53.8 33.4,56.3 25.6,46.2 "/>
<polygon fill="#97928F" points="17.2,57.6 27.2,60.4 10.2,60.1 "/>
<polygon fill="#898892" points="24.2,53.8 27.2,60.4 17.2,57.6 "/>
<polygon fill="#C0B4BC" points="33.4,56.3 27.2,60.4 24.2,53.8 "/>
<polygon fill="#A89DA6" points="40.7,60.9 33.4,56.3 27.2,60.4 "/>
<polygon fill="#9B9BA3" points="44.1,59.7 40.7,60.9 33.4,56.3 "/>
<polygon fill="#6A696F" points="44.1,52.7 33.4,56.3 44.1,59.7 "/>
<polygon fill="#878A93" points="43.6,47.4 33.4,51.6 44.1,52.7 "/>
<polygon fill="#9A98A3" points="33.4,56.3 33.4,51.6 44.1,52.7 "/>
<polygon fill="#93939A" points="43.6,47.4 41.3,46.5 33.4,51.6 "/>
<polygon fill="#B5ACB0" points="33.4,46.4 41.3,46.5 33.4,51.6 "/>
<g>
	<path fill="#A2A1A9" d="M111,19.9c-3.6,0-6.4,1.4-8.3,4.2c-1.7,2.4-2.5,5.5-2.5,9.3s0.8,6.9,2.5,9.3c1.9,2.8,4.7,4.2,8.3,4.2
		c3.2,0,5.7-1,7.4-2.9c1.7-1.8,2.6-4.4,2.6-7.6v-1.2h-9.2V34h10.5c0,0.3,0,0.5,0,0.7s0,0.5,0,0.7c0,6-2,9.8-6.1,11.5
		c-1.6,0.7-3.4,1-5.2,1c-4.1,0-7.2-1.5-9.3-4.4c-1.9-2.6-2.9-6-2.9-10.2c0-4.2,0.9-7.6,2.8-10.2c2.1-3,5.2-4.4,9.3-4.4
		c2.5,0,4.7,0.5,6.5,1.6c2,1.2,3.3,2.9,4,5.2l-1.2,0.6C119.1,21.9,116,19.9,111,19.9z"/>
	<path fill="#A2A1A9" d="M129,34.1v13.3h-1.3v-28h9.3c3.1,0,5.4,0.4,6.8,1.3c1.8,1.1,2.8,3.1,2.8,6c0,3.6-1.7,5.9-5.1,6.9
		c2.4,0.5,3.7,2.1,3.9,4.8c0,0.1,0,1.3,0,3.6l0,5.3H144v-6.3c0-0.8,0-1.4,0-1.8c0-0.5,0-0.8-0.1-1c-0.3-1.7-1-2.9-2.2-3.5
		c-0.9-0.5-2.3-0.7-4.3-0.7H129z M137.7,32.9c5.1,0,7.6-2.1,7.6-6.2c0-3.5-1.6-5.5-4.7-6c-0.4-0.1-0.8-0.1-1.4-0.1
		c-0.6,0-1.3-0.1-2.1-0.1h-8v12.4H137.7z"/>
	<path fill="#A2A1A9" d="M153.7,23.1c2.2-2.9,5.3-4.4,9.5-4.4c4.2,0,7.3,1.4,9.5,4.3c2,2.6,2.9,6.1,2.9,10.3c0,4.3-1,7.7-2.9,10.3
		c-2.2,2.9-5.4,4.3-9.5,4.3s-7.3-1.4-9.5-4.3c-2-2.6-2.9-6-2.9-10.3C150.8,29.1,151.8,25.7,153.7,23.1z M154.7,42.8
		c1.9,2.7,4.8,4.1,8.5,4.1c3.8,0,6.6-1.4,8.5-4.1c1.7-2.4,2.5-5.5,2.5-9.4c0-3.9-0.9-7-2.6-9.4c-1.9-2.7-4.8-4.1-8.5-4.1
		c-3.7,0-6.6,1.4-8.5,4.1c-1.7,2.4-2.5,5.5-2.5,9.4C152.2,37.2,153,40.4,154.7,42.8z"/>
	<path fill="#A2A1A9" d="M180.9,19.3H198v1.2h-15.8v11.6h12.5v1.2h-12.5v12.8h16.2v1.2h-17.5V19.3z"/>
	<path fill="#A2A1A9" d="M203,19.3h1.3l17.6,25.8V19.3h1.3v28h-1.3l-17.6-25.8v25.8H203V19.3z"/>
	<path fill="#A2A1A9" d="M229.6,19.3h17.1v1.2h-15.8v11.6h12.5v1.2h-12.5v12.8h16.2v1.2h-17.5V19.3z"/>
	<path fill="#A2A1A9" d="M261.7,38.8c0.2,2.4,1,4.4,2.4,5.8c1.4,1.4,3.4,2.2,5.9,2.2c2.2,0,4-0.5,5.5-1.6c1.7-1.2,2.5-2.8,2.5-4.9
		c0-2.2-0.9-3.8-2.6-4.9c-0.9-0.6-2.7-1.2-5.6-2c0,0-0.2-0.1-0.5-0.2c-3.2-0.9-5.3-1.8-6.1-2.5c-1.3-1.2-2-2.7-2-4.6
		c0-2.4,0.8-4.2,2.5-5.5c1.5-1.2,3.5-1.8,5.9-1.8c2.6,0,4.7,0.7,6.3,2.1c1.6,1.4,2.5,3.5,2.7,6.1h-1.2c-0.1-2.3-0.8-4-2.3-5.3
		c-1.4-1.2-3.3-1.8-5.5-1.8c-2.1,0-3.8,0.5-5,1.6c-1.4,1.1-2.1,2.7-2.1,4.7c0,1.5,0.6,2.7,1.7,3.8c0.9,0.8,2.7,1.5,5.5,2.3
		c0.1,0,0.1,0,0.2,0.1c0.1,0,0.2,0,0.3,0.1c3,0.8,5,1.6,6.2,2.3c2,1.3,3,3.1,3,5.4c0,2.6-0.9,4.6-2.8,6.1c-1.7,1.3-3.9,2-6.6,2
		c-2.8,0-5.1-0.8-6.7-2.5c-1.7-1.6-2.6-3.8-2.8-6.7H261.7z"/>
	<path fill="#A2A1A9" d="M290.3,20.5h-8.7v-1.2h18.8v1.2h-8.7v26.8h-1.3V20.5z"/>
	<path fill="#A2A1A9" d="M305.3,34.1v13.3H304v-28h9.3c3.1,0,5.4,0.4,6.8,1.3c1.8,1.1,2.8,3.1,2.8,6c0,3.6-1.7,5.9-5.1,6.9
		c2.4,0.5,3.7,2.1,3.9,4.8c0,0.1,0,1.3,0,3.6l0,5.3h-1.5v-6.3c0-0.8,0-1.4,0-1.8c0-0.5,0-0.8-0.1-1c-0.3-1.7-1-2.9-2.2-3.5
		c-0.9-0.5-2.3-0.7-4.3-0.7H305.3z M314,32.9c5.1,0,7.6-2.1,7.6-6.2c0-3.5-1.6-5.5-4.7-6c-0.4-0.1-0.8-0.1-1.4-0.1
		c-0.6,0-1.3-0.1-2.1-0.1h-8v12.4H314z"/>
	<path fill="#A2A1A9" d="M335.7,19.3h1.5l10.6,28h-1.3l-3.6-9.6h-13.1l-3.7,9.6h-1.3L335.7,19.3z M342.4,36.6l-6-15.8l-6.1,15.8
		H342.4z"/>
	<path fill="#A2A1A9" d="M358.8,19.3h1.5l10.6,28h-1.3l-3.6-9.6H353l-3.7,9.6H348L358.8,19.3z M365.6,36.6l-6-15.8l-6.1,15.8H365.6z
		"/>
	<path fill="#A2A1A9" d="M378.5,20.5h-8.7v-1.2h18.8v1.2h-8.7v26.8h-1.3V20.5z"/>
</g>
</svg>
