<?xml version="1.0" encoding="utf-8"?>
<!-- Generator: Adobe Illustrator 18.1.1, SVG Export Plug-In . SVG Version: 6.00 Build 0)  -->
<svg version="1.1" id="Layer_1" xmlns="http://www.w3.org/2000/svg" xmlns:xlink="http://www.w3.org/1999/xlink" x="0px" y="0px"
	 viewBox="0 0 500 500" enable-background="new 0 0 500 500" xml:space="preserve">
<polygon id="stengel_1_" fill="#A5CF58" points="253.2,261.4 247.5,368.8 253.7,361.3 259.3,261.2 "/>
<polygon fill="#3D3120" points="270.3,315.5 261.9,302.2 249.9,317.6 "/>
<polygon fill="#2B2312" points="254.4,303.9 249.9,317.6 261.9,302.2 "/>
<polygon fill="#49432F" points="230.4,308.6 254.4,303.9 249.9,317.6 "/>
<polygon fill="#222418" points="211.7,315 219.9,307.4 230.4,308.6 "/>
<polygon fill="#1E2315" points="254.4,303.9 240.7,304.2 230.4,308.6 "/>
<polygon fill="#282211" points="249.9,317.6 230.2,315.7 230.4,308.6 "/>
<polygon fill="#746A4A" points="211.5,315 230.2,315.7 230.4,308.6 "/>
<polygon fill="#060606" points="264.8,302.1 270.3,315.7 261.9,302.2 "/>
<polygon fill="#060606" points="270.2,315.7 267.7,302.1 264.8,302.1 "/>
<polygon fill="#434026" points="274.9,304 270.2,315.5 267.7,302.1 "/>
<polygon fill="#020202" points="249.9,317.6 239.4,324.8 230.4,315.7 "/>
<polygon fill="#453A25" points="211.7,315 239.4,324.8 230.4,315.7 "/>
<polygon fill="#212011" points="211.7,315 198.3,323.6 239.4,324.8 "/>
<polygon fill="#302817" points="249.9,317.6 264.8,326.5 239.4,324.8 "/>
<polygon fill="#312B14" points="270.2,315.5 264.8,326.5 249.9,317.6 "/>
<polygon fill="#12120C" points="274.9,304 287.4,316 270.2,315.5 "/>
<polygon fill="#202116" points="264.8,326.5 287.4,316 270.2,315.5 "/>
<polygon fill="#312C1C" points="287.9,322 264.8,326.5 287.4,316 "/>
<polygon fill="#2F2A1B" points="300.6,319.6 287.9,322 287.4,316 "/>
<polygon fill="#453520" points="314,315.5 287.4,316 320.4,324.5 "/>
<polygon fill="#131C12" points="274.9,304 314,315.5 287.4,316 "/>
<polygon fill="#453520" points="239.4,324.8 251.1,332.1 264.8,326.5 "/>
<polygon fill="#453520" points="264.8,326.5 251.1,338.8 251.6,345.6 "/>
<polygon fill="#2B2312" points="251,332 251,339 264.8,326.5 "/>
<polygon fill="#8D8C91" points="251.6,335.6 264.8,323.8 291.2,342 "/>
<polygon fill="#828185" points="253.7,361.3 291.2,342 251.6,335.6 "/>
<polygon fill="#A9A4AA" points="295.5,380.1 253.7,361.3 291.2,342 "/>
<polygon fill="#938C93" points="253.7,381.1 253.7,361.3 295.5,380.1 "/>
<polygon fill="#9E979E" points="266.9,393 253.7,381.1 295.5,380.1 "/>
<polygon fill="#84868B" points="264.8,323.8 300.6,319.6 291.2,342 "/>
<polygon fill="#868990" points="341.6,323.3 300.6,319.6 291.2,342 "/>
<polygon fill="#787B82" points="331.4,361 295.5,380.1 291.2,342 "/>
<polygon fill="#9B9AA2" points="341.6,323.3 331.4,361 291.2,342 "/>
<polygon fill="#9294A0" points="378.3,323.3 341.6,323.3 378.3,373.5 "/>
<polygon fill="#9B9CA8" points="331.4,361 378.3,373.5 341.6,323.3 "/>
<polygon fill="#9C9AA5" points="295.5,380.1 346.7,394.3 266.9,393 "/>
<polygon fill="#9D9CA4" points="331.4,361 346.7,394.3 295.5,380.1 "/>
<polygon fill="#A5A4AC" points="378.3,373.5 346.7,394.3 331.4,361 "/>
<polygon fill="#A39BA8" points="415.9,396.7 378.3,373.5 346.7,394.3 "/>
<polygon fill="#92909C" points="430.4,390.9 415.9,396.7 378.3,373.5 "/>
<polygon fill="#928F98" points="430.4,355.4 378.3,373.5 430.4,390.9 "/>
<polygon fill="#989AA7" points="430.4,328.3 378.3,349.7 430.4,355.4 "/>
<polygon fill="#8E8C99" points="378.3,373.5 378.3,349.7 430.4,355.4 "/>
<polygon fill="#898C95" points="430.4,328.3 418.9,320.9 378.3,349.7 "/>
<polygon fill="#9C9BA3" points="378.3,323.3 418.9,320.9 378.3,349.7 "/>
<polygon fill="#8B838A" points="71.8,334.3 83.1,322.2 109.9,340.8 "/>
<polygon fill="#8E8D93" points="71.8,360.6 109.9,340.8 71.8,334.3 "/>
<polygon fill="#908991" points="114.3,379.9 71.8,360.6 109.9,340.8 "/>
<polygon fill="#919197" points="71.8,381 71.8,360.6 114.3,379.9 "/>
<polygon fill="#BCB1B7" points="77.9,393.1 71.8,381 114.3,379.9 "/>
<polygon fill="#96939F" points="83.1,322.2 119.5,317.8 109.9,340.8 "/>
<polygon fill="#706F75" points="157.6,320.8 119.5,317.8 109.9,340.8 "/>
<polygon fill="#877D85" points="150.6,360.3 114.3,379.9 109.9,340.8 "/>
<polygon fill="#8B8A95" points="157.6,320.8 150.6,360.3 109.9,340.8 "/>
<polygon fill="#93939A" points="198.3,321.4 157.6,320.8 198.3,373.1 "/>
<polygon fill="#A2A1A9" points="150.6,360.3 198.3,373.1 157.6,320.8 "/>
<polygon fill="#97928F" points="114.3,379.9 166.2,394.4 77.9,393.1 "/>
<polygon fill="#898892" points="150.6,360.3 166.2,394.4 114.3,379.9 "/>
<polygon fill="#C0B4BC" points="198.3,373.1 166.2,394.4 150.6,360.3 "/>
<polygon fill="#A89DA6" points="236.3,396.9 198.3,373.1 166.2,394.4 "/>
<polygon fill="#9B9BA3" points="253.7,390.9 236.3,396.9 198.3,373.1 "/>
<polygon fill="#6A696F" points="253.7,354.5 198.3,373.1 253.7,390.9 "/>
<polygon fill="#878A93" points="251.1,326.7 198.3,348.7 253.7,354.5 "/>
<polygon fill="#9A98A3" points="198.3,373.1 198.3,348.7 253.7,354.5 "/>
<polygon fill="#93939A" points="251.1,326.7 239.4,322.2 198.3,348.7 "/>
<polygon fill="#B5ACB0" points="198.3,321.4 239.4,322.2 198.3,348.7 "/>
<g id="left_1_">
	<polygon fill="#B0D470" points="259.3,261.2 221.8,180.9 220.3,185.7 253.2,261.4 	"/>
	<polygon fill="#78B443" points="53.5,130.2 171.2,152.1 152.3,103.5 	"/>
	<polygon fill="#55A245" points="190.9,114 171.2,152.1 152.4,103.4 	"/>
	<polygon fill="#6DB344" points="212,141 190.9,114.1 171.2,152.1 	"/>
	<polygon fill="#7DBB42" points="221.8,180.9 212,141 171.2,152.1 	"/>
	<polygon fill="#6BA442" points="230,150.4 214.1,149.4 221.8,180.9 	"/>
	<polygon fill="#78B443" points="220.3,185.7 210.8,174.3 221.8,180.9 	"/>
</g>
<g id="right_1_">
	<polygon fill="#A2CF6A" points="446.5,236.8 376.2,183.7 421.7,195.3 	"/>
	<polygon fill="#97CB5A" points="363.4,145.2 421.7,195.3 376.2,183.7 	"/>
	<polygon fill="#9AC95A" points="329.5,125 376.6,183.4 363.8,144.9 	"/>
	<polygon fill="#97CA4E" points="334.8,176.9 329.5,125 376.6,183.4 	"/>
	<polygon fill="#82C041" points="291.7,195.7 299.4,181.1 329.5,125 334.8,176.9 	"/>
	<polygon fill="#B9D985" points="309.9,135.8 329.5,125 291.7,195.7 	"/>
	<polygon fill="#B0D470" points="259.3,261.2 291.7,195.7 281.1,200.7 253.2,261.4 	"/>
	<polygon fill="#89C440" points="298.6,172.8 281.1,200.7 291.7,195.7 	"/>
	<path fill="none" d="M263.7,226.7"/>
</g>
</svg>
